<?xml version="1.0" standalone="no"?>
<!DOCTYPE svg PUBLIC "-//W3C//DTD SVG 20010904//EN"
 "http://www.w3.org/TR/2001/REC-SVG-20010904/DTD/svg10.dtd">
<svg version="1.0" xmlns="http://www.w3.org/2000/svg"
 width="666.000000pt" height="375.000000pt" viewBox="0 0 666.000000 375.000000"
 preserveAspectRatio="xMidYMid meet">

<g transform="translate(0.000000,375.000000) scale(0.100000,-0.100000)"
fill="#000000" stroke="none">
<path d="M530 2760 c-77 -9 -186 -49 -252 -91 -57 -37 -157 -142 -192 -202
-14 -24 -35 -70 -47 -103 -19 -55 -21 -86 -26 -461 -5 -444 -3 -466 58 -591
38 -77 133 -182 213 -234 33 -21 96 -51 140 -66 l81 -27 2815 0 c2333 0 2824
2 2870 14 214 52 407 246 449 449 15 72 15 783 0 854 -21 102 -75 196 -163
284 -84 84 -156 127 -266 162 -51 15 -254 17 -2835 18 -1529 1 -2809 -2 -2845
-6z m204 -280 c39 -28 118 -84 176 -125 233 -163 210 -141 210 -202 0 -32 -4
-53 -11 -53 -10 0 -71 42 -373 257 -49 35 -95 62 -101 59 -15 -5 -383 -253
-406 -272 -33 -29 -49 -17 -49 34 l0 48 226 152 c125 84 233 152 242 152 8 0
47 -23 86 -50z m17 -225 c41 -30 82 -62 92 -71 18 -19 24 -74 6 -74 -10 0
-122 73 -145 94 -7 6 -33 24 -60 40 l-48 28 23 19 c13 10 31 19 40 19 10 0 51
-25 92 -55z m1777 -113 l3 -103 31 22 c34 24 106 35 163 25 45 -9 112 -68 136
-121 21 -46 25 -145 7 -196 -17 -51 -66 -108 -106 -125 -67 -27 -193 -13 -216
25 -11 17 -23 13 -29 -8 -3 -13 -17 -20 -47 -24 -74 -10 -70 -28 -70 302 0
164 3 301 7 305 4 4 32 6 63 4 l55 -3 3 -103z m-930 76 c8 -8 12 -65 12 -191
0 -165 2 -182 22 -218 48 -86 177 -83 214 6 10 25 14 81 14 213 0 125 4 182
12 190 7 7 29 12 49 12 72 0 69 10 69 -214 0 -190 -1 -204 -24 -251 -29 -62
-68 -100 -125 -120 -60 -21 -166 -19 -216 4 -51 23 -118 98 -133 149 -17 56
-16 419 1 425 24 10 93 7 105 -5z m2782 -48 l0 -39 -142 -3 -143 -3 -3 -72 -3
-73 126 0 125 0 0 -40 0 -39 -122 -3 -123 -3 -3 -77 c-2 -59 0 -78 10 -78 7
-1 74 -2 148 -3 l135 -2 3 -43 3 -42 -202 2 -203 3 -2 270 c-1 149 0 273 3
278 2 4 92 7 199 7 l194 0 0 -40z m652 -37 l3 -58 45 -5 c42 -5 45 -7 48 -36
3 -31 2 -32 -48 -39 l-52 -7 3 -119 c3 -75 8 -122 16 -130 7 -7 31 -12 53 -11
l41 2 -3 -38 c-3 -36 -5 -37 -50 -46 -64 -12 -114 7 -139 54 -16 29 -19 57
-19 161 l0 127 -30 6 c-26 5 -30 10 -30 40 0 30 3 35 28 38 26 3 27 6 30 61
l3 57 49 0 49 0 3 -57z m790 0 l3 -58 42 -3 c31 -2 44 -8 48 -23 12 -36 -3
-56 -41 -57 -19 -1 -39 -4 -44 -7 -15 -9 -12 -218 3 -238 6 -9 30 -17 51 -19
34 -3 41 -7 48 -33 4 -17 3 -34 -2 -39 -15 -15 -123 -13 -152 3 -42 22 -52 56
-56 198 l-4 132 -30 6 c-26 6 -29 11 -26 38 2 24 9 33 28 37 21 5 25 12 28 50
4 67 7 70 56 70 l45 0 3 -57z m-5164 17 c20 -11 46 -26 57 -33 10 -6 37 -23
59 -36 l39 -23 -24 -20 c-64 -51 -164 -118 -176 -118 -10 0 -13 27 -13 125 0
80 4 125 10 125 6 0 27 -9 48 -20z m428 -126 c17 -10 19 -25 22 -143 l3 -133
-88 7 c-48 4 -91 9 -95 12 -9 5 -11 347 -2 356 3 3 36 -15 73 -41 37 -26 76
-52 87 -58z m2705 50 c15 -7 38 -30 51 -51 21 -35 23 -50 26 -210 l4 -173 -61
0 -61 0 0 129 c0 135 -10 185 -40 201 -25 13 -63 13 -94 -1 -44 -20 -56 -64
-56 -203 l0 -126 -60 0 -60 0 0 220 0 220 54 0 c46 0 56 -3 61 -20 8 -24 18
-25 35 -5 19 22 100 45 140 39 19 -3 46 -12 61 -20z m-1597 -10 c6 -10 12 -21
14 -24 2 -3 9 3 16 12 15 20 58 38 91 38 19 0 25 -7 30 -34 13 -64 5 -80 -47
-93 -26 -6 -52 -14 -59 -18 -27 -17 -39 -76 -39 -190 l0 -115 -60 0 -60 0 2
218 3 217 40 6 c52 8 56 7 69 -17z m1038 14 c47 -14 93 -63 107 -115 6 -21 11
-102 11 -179 l0 -142 -25 -6 c-35 -9 -74 3 -86 25 -9 18 -11 18 -40 -3 -40
-30 -142 -37 -193 -13 -94 45 -102 174 -14 237 29 20 44 23 130 23 93 0 98 1
98 21 0 12 -9 32 -19 45 -16 20 -28 24 -73 23 -35 -1 -66 -9 -90 -24 l-37 -22
-21 34 c-25 42 -25 43 8 66 55 40 166 54 244 30z m1485 -13 c64 -19 78 -34 62
-69 -14 -30 -25 -32 -51 -10 -10 10 -40 19 -68 22 -60 6 -100 -15 -100 -53 0
-30 30 -47 114 -66 109 -24 158 -78 137 -150 -6 -20 -25 -49 -41 -63 -56 -47
-206 -45 -286 5 l-34 21 21 29 21 30 35 -21 c50 -29 135 -37 168 -16 53 35 10
84 -90 101 -97 17 -142 63 -132 136 13 96 119 141 244 104z m746 4 c100 -25
121 -69 125 -266 l4 -153 -40 0 c-34 0 -42 4 -49 26 l-8 25 -25 -19 c-81 -62
-206 -53 -250 20 -41 67 -18 143 55 178 40 19 58 22 127 18 91 -5 98 0 74 56
-9 23 -25 40 -43 47 -34 13 -108 4 -139 -16 -32 -21 -39 -19 -53 12 -15 33 -8
40 61 64 61 21 102 23 161 8z m854 -19 c66 -37 127 -152 107 -204 -5 -14 -28
-16 -169 -16 -101 0 -166 -4 -170 -10 -11 -18 29 -74 65 -93 43 -22 108 -16
149 14 27 20 30 20 61 4 l32 -17 -32 -33 c-57 -59 -171 -72 -256 -30 -34 17
-60 40 -84 76 -31 46 -35 59 -35 119 0 60 4 72 34 118 34 50 69 76 119 93 44
14 137 3 179 -21z m-6027 -281 l0 -291 -37 7 c-21 4 -41 9 -45 11 -9 6 -11
478 -2 510 5 18 49 48 77 53 4 0 7 -130 7 -290z m250 -20 c0 -191 3 -251 13
-254 6 -2 26 -6 42 -9 17 -2 32 -5 35 -5 9 -1 10 -55 2 -68 -6 -9 -25 -8 -80
2 -40 8 -77 17 -82 20 -6 4 -10 111 -10 276 l0 270 32 14 c18 7 36 11 40 9 5
-3 8 -118 8 -255z m270 167 c0 -52 -4 -56 -38 -47 -21 6 -28 14 -30 39 -3 25
2 33 25 45 37 20 43 14 43 -37z m-391 -211 l2 -255 -28 0 c-53 0 -57 9 -55
127 1 59 2 167 2 240 0 142 -1 139 56 142 21 1 21 -2 23 -254z m566 -10 c55
-8 106 -15 113 -15 10 0 12 -22 10 -92 l-3 -92 -50 -11 c-27 -7 -112 -29 -187
-49 -75 -20 -139 -36 -142 -36 -3 0 -6 73 -6 161 l0 162 83 -6 c45 -4 127 -14
182 -22z"/>
<path d="M2588 1968 c-42 -24 -58 -54 -58 -109 0 -54 22 -93 64 -113 43 -20
65 -20 96 1 46 32 59 56 60 105 0 63 -17 96 -62 119 -47 24 -54 24 -100 -3z"/>
<path d="M3092 1825 c-91 -40 -21 -140 71 -101 37 15 57 41 57 75 0 24 -4 27
-55 35 -25 3 -52 0 -73 -9z"/>
<path d="M5340 1838 c-13 -7 -31 -26 -40 -41 -32 -57 33 -108 112 -87 59 16
95 78 69 118 -12 19 -111 26 -141 10z"/>
<path d="M6165 2003 c-40 -10 -97 -88 -78 -107 4 -3 57 -6 120 -6 111 0 113 0
113 23 0 62 -79 108 -155 90z"/>
</g>
</svg>
